<svg xmlns="http://www.w3.org/2000/svg" viewBox="0 0 100 100">
<g fill="none" stroke="#006994" stroke-linecap="round">
<path stroke-width="5" d="M52.4 46.0 L52.8 46.4 L52.6 46.7 L52.7 47.2 L52.2 47.4 L51.6 47.4 L52.2 48.5 L52.5 49.7 L51.8 49.8 L51.2 49.9 L50.7 50.1 L50.1 49.7 L49.5 50.2 L48.6 51.6 L47.7 51.5 L47.3 50.6 L46.6 50.3 L46.0 49.8 L45.6 49.2 L44.0 49.1 L42.8 48.6 L43.2 47.4 L43.5 46.4 L43.1 45.5 L43.1 44.5 L42.8 43.3 L42.1 41.7 L42.9 40.8 L44.5 40.5 L45.1 39.6 L45.7 38.4 L46.7 37.6 L47.7 36.3 L49.0 35.6 L50.5 36.5 L51.7 37.1 L53.2 36.5 L54.8 36.5 L56.3 37.0 L58.0 37.4 L58.8 38.8 L58.9 40.6 L60.2 41.7 L61.8 42.8 L62.3 44.5 L62.8 46.2 L62.9 48.0 L61.6 49.6 L60.9 51.1 L61.3 53.3 L60.6 55.3 L59.2 56.6 L57.8 58.0 L55.9 58.7 L53.9 58.8 L52.2 60.2 L50.2 61.7 L48.0 61.4 L46.0 60.8 L43.9 60.3 L42.2 58.9 L40.3 57.8 L37.6 57.4 L35.7 55.9 L35.1 53.5 L34.2 51.3 L33.5 49.1 L33.4 46.7 L32.3 44.3 L31.6 41.6 L32.9 39.3 L34.5 37.2 L35.6 34.9 L37.2 32.9 L38.9 30.9 L40.4 28.3 L43.0 27.0 L45.9 27.3 L48.5 26.8 L51.3 26.1 L54.1 26.3 L57.1 26.2 L60.2 26.7 L62.3 29.0 L64.1 31.3 L66.7 32.9 L68.9 35.0 L70.5 37.7 L72.3 40.4 L72.7 43.6 L71.8 46.7 L71.8 49.8 L72.2 53.2 L71.3 56.4 L69.9 59.4 L68.1 62.3 L65.1 64.1 L62.3 65.7 L59.9 68.4 L56.9 70.4 L53.5 71.0 L49.9 71.5 L46.4 71.1 L43.1 69.7 L39.6 69.1 L35.7 68.7 L32.6 66.5 L30.1 63.7 L27.7 60.9 L26.2 57.4 L24.8 54.0 L22.5 50.7 L21.3 46.8 L22.1 42.9 L22.9 39.0 L24.0 35.3 L26.0 31.9 L27.5 28.1 L29.3 24.1 L32.7 21.7 L36.6 20.2 L40.2 18.2 L44.2 17.0 L48.2 16.2 L52.5 14.9 L56.9 15.1 L60.8 17.4 L64.6 19.3 L68.6 21.0 L72.1 23.7 L75.6 26.6 L78.9 29.9 L80.3 34.3 L80.8 38.8 L82.2 43.1 L83.0 47.7 L82.7 52.3 L82.3 57.1 L80.6 61.5 L77.2 65.0 L74.3 68.7 L71.7 72.8 L68.0 75.9 L63.7 78.4 L59.2 80.5 L54.2 80.8 L49.3 80.4 L44.4 81.1 L39.2 80.9 L41.7 82.4 L44.0 84.0 L45.9 86.0 L47.7 87.3 L49.8 88.7 L52.3 90.8"/>
<path stroke-width="4" d="M44.7 50.2 L48.0 48.8 M41.6 46.2 L44.6 48.2 M41.9 43.8 L45.0 42.1 M43.0 39.0 L46.4 40.1 M48.8 34.5 L48.8 38.1 M55.1 34.4 L54.1 37.8 M60.0 40.0 L56.4 40.4 M64.3 45.0 L60.9 46.1 M62.6 52.0 L59.1 52.7 M57.3 59.9 L56.3 56.5 M49.0 63.7 L49.5 60.1 M41.0 59.3 L42.9 56.3 M32.9 53.6 L36.2 52.3 M31.1 44.1 L34.4 42.7 M33.9 33.4 L37.0 35.4 M43.2 25.9 L43.1 29.5 M54.2 24.3 L54.0 27.9 M64.8 30.1 L62.6 32.9 M73.4 39.3 L70.2 40.9 M74.1 52.5 L70.5 52.5 M66.5 64.8 L65.1 61.5 M55.0 73.0 L54.5 69.4 M41.1 70.2 L41.4 66.6 M27.2 63.8 L29.9 61.4 M20.7 49.4 L24.1 48.3 M23.0 33.0 L26.1 34.9 M33.4 20.0 L34.6 23.3 M48.6 14.4 L49.7 17.8 M65.9 17.8 L64.6 21.2 M80.1 29.6 L77.0 31.3 M85.1 47.7 L81.5 47.7 M78.1 65.5 L75.6 62.9 M65.4 80.0 L63.6 76.8"/>
</g>
</svg>
